<svg xmlns="http://www.w3.org/2000/svg" width="169" height="50" viewBox="0 0 169 50"><style>.a{fill:none;stroke:#E5E4E4;}.b{fill:#E78D24;}</style><path d="M0 0h169v50H0V0z" fill="none"/><path d="M32.9 0v37.1c0 3.9-3.2 7.1-7.2 7.1H8.6c-4 0-7.2-3.2-7.2-7.1V0H32.9z" class="a"/><path d="M21.5 30.2c-0.7 0-1.2 0.2-1.7 0.6l-3.5-2.1c0-0.2 0-0.3 0-0.5 0-0.2 0-0.4-0.1-0.6l3.6-2.3c0.5 0.3 1 0.5 1.6 0.5 1.5 0 2.8-1.3 2.8-2.8s-1.3-2.8-2.8-2.8 -2.8 1.3-2.8 2.8c0 0.2 0 0.4 0.1 0.6l-3.6 2.4c-0.5-0.3-1-0.5-1.6-0.5 -1.5 0-2.8 1.3-2.8 2.8 0 1.5 1.3 2.8 2.8 2.8 0.7 0 1.3-0.2 1.7-0.6l3.5 2.1C18.7 32.7 18.7 32.8 18.7 33c0 1.5 1.3 2.8 2.8 2.8s2.8-1.3 2.8-2.8S23 30.2 21.5 30.2z" fill="#0F9C23"/><path d="M74.6 0v37.1c0 3.9-3.2 7.1-7.2 7.1H50.3c-4 0-7.2-3.2-7.2-7.1V0H74.6z" class="a"/><path d="M64.9 31.8l-2.8-2.8c0.7-0.9 1.1-2.1 1.1-3.2 0-1.5-0.6-2.9-1.6-3.9 -1.1-1.1-2.5-1.6-4-1.6 -1.5 0-2.9 0.6-4 1.6s-1.6 2.5-1.6 3.9c0 1.5 0.6 2.9 1.6 3.9 1.1 1.1 2.5 1.6 4 1.6 1.2 0 2.3-0.4 3.3-1l2.8 2.8c0.2 0.2 0.4 0.3 0.6 0.3 0.2 0 0.5-0.1 0.6-0.3C65.3 32.7 65.3 32.2 64.9 31.8zM54.9 28.4c-0.7-0.7-1.1-1.7-1.1-2.7 0-1 0.4-1.9 1.1-2.7 0.7-0.7 1.7-1.1 2.7-1.1 1 0 2 0.4 2.7 1.1s1.1 1.7 1.1 2.7c0 1-0.4 1.9-1.1 2.7 -0.7 0.7-1.7 1.1-2.7 1.1C56.6 29.5 55.6 29.2 54.9 28.4z" fill="#E13A7B"/><path d="M117.3 0v37.1c0 3.9-3.2 7.1-7.2 7.1H93c-4 0-7.2-3.2-7.2-7.1V0H117.3z" class="a"/><path d="M106.8 34.5c0 0.1 0.1 0.2 0.1 0.3 0 0.1 0 0.3-0.1 0.4 -0.1 0.1-0.2 0.2-0.4 0.3l-0.7 0.3c-0.3 0.1-0.6 0.2-0.8 0.3 -0.3 0.1-0.6 0.1-0.8 0.1 -0.5 0-0.9-0.1-1.4-0.2 -0.4-0.1-0.9-0.3-1.3-0.6 -0.4-0.3-0.8-0.6-1.2-1 -0.4-0.4-0.7-0.8-1-1.3 -0.2-0.3-0.4-0.6-0.6-0.9 -0.2-0.3-0.4-0.6-0.6-1 -0.2-0.4-0.4-0.8-0.7-1.3 -0.2-0.5-0.4-0.9-0.5-1.3 -0.1-0.4-0.2-0.7-0.3-0.9 -0.1-0.3-0.1-0.5-0.2-0.7 -0.1-0.4-0.2-0.7-0.3-1.1 -0.1-0.4-0.1-0.7-0.1-1.1 0-0.5 0.1-0.9 0.2-1.3 0.1-0.4 0.3-0.8 0.5-1.2 0.2-0.4 0.5-0.7 0.8-1 0.3-0.3 0.7-0.5 1.1-0.7l0.7-0.3c0.1 0 0.2-0.1 0.3-0.1 0.2 0 0.3 0 0.4 0.1 0.1 0.1 0.2 0.2 0.3 0.3l1.4 2.9c0 0.1 0.1 0.2 0.1 0.3 0 0.2 0 0.3-0.1 0.4 -0.1 0.1-0.2 0.2-0.4 0.3l-1.4 0.6c-0.2 0.1-0.3 0.2-0.4 0.3 -0.1 0.2-0.1 0.3-0.1 0.5 0 0.1 0 0.3 0.1 0.4l2.3 4.9c0.1 0.2 0.2 0.3 0.4 0.4 0.2 0.1 0.3 0.1 0.5 0.1 0.1 0 0.3 0 0.4-0.1l1.4-0.6c0.1 0 0.2-0.1 0.3-0.1 0.2 0 0.3 0 0.4 0.1s0.2 0.2 0.3 0.3L106.8 34.5z" fill="#1083AF"/><path d="M159 0v37.1c0 3.9-3.2 7.1-7.2 7.1h-17.2c-4 0-7.2-3.2-7.2-7.1V0H159z" class="a"/><path d="M131.3 19.7v8.1h1.4v-2.7l-0.1-3.6 2.4 6.3h1l2.4-6.3 -0.1 3.6v2.7h1.4v-8.1h-1.8l-2.3 6.2 -2.3-6.2H131.3z" class="b"/><path d="M146.2 27.9v-0.1c-0.2-0.3-0.2-0.8-0.2-1.3v-2.7c0-0.6-0.2-1.1-0.6-1.5 -0.4-0.4-1-0.5-1.7-0.5 -0.5 0-0.9 0.1-1.3 0.2 -0.4 0.2-0.7 0.4-0.9 0.7 -0.2 0.3-0.3 0.6-0.3 0.9h1.4c0-0.2 0.1-0.4 0.3-0.6 0.2-0.2 0.5-0.2 0.8-0.2 0.4 0 0.6 0.1 0.8 0.3 0.2 0.2 0.3 0.4 0.3 0.8v0.4h-0.8c-0.9 0-1.6 0.2-2.1 0.5 -0.5 0.3-0.7 0.8-0.7 1.5 0 0.5 0.2 0.9 0.6 1.3 0.4 0.3 0.9 0.5 1.5 0.5 0.6 0 1.2-0.2 1.6-0.7 0 0.3 0.1 0.4 0.2 0.6H146.2L146.2 27.9zM142.6 26.6c-0.2-0.2-0.3-0.4-0.3-0.6 0-0.3 0.1-0.6 0.4-0.7 0.3-0.2 0.6-0.3 1.1-0.3h0.7v1.1c-0.1 0.2-0.3 0.4-0.5 0.5s-0.5 0.2-0.8 0.2C143 26.9 142.8 26.8 142.6 26.6z" class="b"/><path d="M148.8 21.8h-1.4v6h1.4V21.8zM147.6 20.8c0.1 0.1 0.3 0.2 0.6 0.2s0.4-0.1 0.6-0.2c0.1-0.1 0.2-0.3 0.2-0.5 0-0.2-0.1-0.4-0.2-0.5 -0.1-0.1-0.3-0.2-0.6-0.2s-0.4 0.1-0.6 0.2c-0.1 0.1-0.2 0.3-0.2 0.5C147.4 20.5 147.5 20.6 147.6 20.8z" class="b"/><path d="M150.3 21.8v6h1.4V23.6c0.3-0.5 0.7-0.7 1.2-0.7 0.4 0 0.6 0.1 0.8 0.3 0.2 0.2 0.2 0.5 0.2 0.9v3.9h1.4v-4c0-1.4-0.7-2.2-1.9-2.2 -0.7 0-1.3 0.3-1.8 0.8l0-0.7H150.3z" class="b"/><path d="M138 40.3c-0.2 0.2-0.6 0.3-1.1 0.3 -0.6 0-1-0.1-1.3-0.4 -0.3-0.3-0.5-0.6-0.5-1.1h-1.4c0 0.5 0.1 1 0.4 1.3 0.3 0.4 0.7 0.7 1.2 0.9 0.5 0.2 1 0.3 1.6 0.3 0.9 0 1.6-0.2 2.1-0.6 0.5-0.4 0.8-0.9 0.8-1.6 0-0.4-0.1-0.8-0.3-1.1 -0.2-0.3-0.5-0.6-0.8-0.8 -0.4-0.2-0.9-0.5-1.5-0.6 -0.6-0.2-1.1-0.4-1.4-0.6 -0.3-0.2-0.4-0.4-0.4-0.7 0-0.4 0.1-0.6 0.4-0.8s0.6-0.3 1.1-0.3c0.5 0 0.9 0.1 1.1 0.4 0.3 0.2 0.4 0.6 0.4 1h1.4c0-0.5-0.1-0.9-0.4-1.3 -0.3-0.4-0.6-0.7-1-0.9 -0.4-0.2-0.9-0.3-1.5-0.3 -0.9 0-1.5 0.2-2.1 0.6 -0.5 0.4-0.8 1-0.8 1.6 0 0.7 0.4 1.4 1.1 1.8 0.4 0.2 0.9 0.5 1.6 0.7 0.7 0.2 1.1 0.4 1.4 0.6 0.3 0.2 0.4 0.5 0.4 0.8C138.4 39.8 138.3 40.1 138 40.3z" class="b"/><path d="M142.4 35.5h-1.4v6h1.4V35.5zM141.1 34.5c0.1 0.1 0.3 0.2 0.6 0.2 0.2 0 0.4-0.1 0.6-0.2s0.2-0.3 0.2-0.5c0-0.2-0.1-0.4-0.2-0.5 -0.1-0.1-0.3-0.2-0.6-0.2 -0.2 0-0.4 0.1-0.6 0.2 -0.1 0.1-0.2 0.3-0.2 0.5C140.9 34.2 141 34.3 141.1 34.5z" class="b"/><path d="M144.2 34.1v1.5h-1v1h1v3.4c0 1.1 0.5 1.7 1.6 1.7 0.3 0 0.6 0 0.9-0.1v-1c-0.2 0-0.3 0.1-0.5 0.1 -0.2 0-0.4-0.1-0.5-0.2 -0.1-0.1-0.1-0.3-0.1-0.5v-3.4h1.1v-1h-1.1v-1.5H144.2z" class="b"/><path d="M151.7 41.4c0.4-0.2 0.7-0.5 1-0.8l-0.7-0.7c-0.4 0.5-0.9 0.8-1.5 0.8 -0.4 0-0.8-0.1-1.1-0.4 -0.3-0.3-0.5-0.7-0.5-1.2h4v-0.5c0-1-0.2-1.7-0.7-2.2 -0.5-0.5-1.1-0.8-1.9-0.8 -0.5 0-1 0.1-1.4 0.4 -0.4 0.3-0.7 0.6-1 1.1s-0.3 1-0.3 1.6v0.2c0 0.9 0.3 1.6 0.8 2.2s1.2 0.8 2.1 0.8C150.9 41.7 151.3 41.6 151.7 41.4zM151.1 36.9c0.2 0.2 0.3 0.6 0.4 1v0.1h-2.6c0.1-0.5 0.2-0.8 0.4-1.1 0.2-0.3 0.5-0.4 0.9-0.4C150.6 36.5 150.9 36.6 151.1 36.9z" class="b"/></svg>